<?xml version="1.0" encoding="UTF-8"?> <svg xmlns="http://www.w3.org/2000/svg" id="Layer_1" data-name="Layer 1" viewBox="0 0 200 200"><defs><style> .cls-1 { fill: #d96227; } .cls-2 { fill: #fff; } </style></defs><g><polygon class="cls-1" points="180.61 71.5 133.06 71.5 133.06 117.55 28.71 117.55 28.71 143.07 195.29 143.07 195.29 127.34 195.29 117.55 195.29 108.7 180.61 71.5"></polygon><g><path class="cls-1" d="M166.43,160.11a17.69,17.69,0,1,1,17.69-17.69A17.71,17.71,0,0,1,166.43,160.11Z"></path><path class="cls-2" d="M166.43,126.83a15.59,15.59,0,1,1-15.59,15.59,15.58,15.58,0,0,1,15.59-15.59m0-4.2a19.79,19.79,0,1,0,19.79,19.79,19.82,19.82,0,0,0-19.79-19.79Z"></path></g><g><path class="cls-1" d="M66.58,160.11a17.69,17.69,0,1,1,17.69-17.69A17.71,17.71,0,0,1,66.58,160.11Z"></path><path class="cls-2" d="M66.58,126.83A15.59,15.59,0,1,1,51,142.42a15.59,15.59,0,0,1,15.58-15.59m0-4.2a19.79,19.79,0,1,0,19.79,19.79,19.82,19.82,0,0,0-19.79-19.79Z"></path></g><polygon class="cls-1" points="123.01 111.55 28.94 111.55 40.19 49.18 134.26 49.18 123.01 111.55"></polygon><polygon class="cls-2" points="182.11 108.27 144.57 108.27 144.57 85.46 172.99 85.46 182.11 108.27"></polygon><polygon class="cls-1" points="35.69 57.48 -48.67 49.13 35.69 49.13 35.69 57.48"></polygon><polygon class="cls-1" points="32.28 77.08 -34.19 70.5 32.28 70.5 32.28 77.08"></polygon><polygon class="cls-1" points="28.36 93.95 -22.94 88.87 28.36 88.87 28.36 93.95"></polygon><g><g><ellipse class="cls-2" cx="97.71" cy="67.3" rx="12.81" ry="7.53" transform="translate(-12.33 111.66) rotate(-56.51)"></ellipse><path class="cls-2" d="M72.22,99.85l22.55-31.5c.93-1.4,1.69-2.67,3.09-1.75h0c1.4.93.74,2.11-.19,3.51L77.28,103.2a3,3,0,0,1-4.21.86h0A3,3,0,0,1,72.22,99.85Z"></path></g><g><path class="cls-2" d="M94.73,103.31,73.12,71.15C75,73.5,82,78.39,75.78,69.05L99.64,99.74A3,3,0,0,1,99,104h0A3,3,0,0,1,94.73,103.31Z"></path><path class="cls-2" d="M81.53,69.49l-1.17-1.61-.07-.1L70.64,54.5a1.11,1.11,0,0,0-1.27-.4,1.06,1.06,0,0,0-.46,1.6l9.23,12.7A.75.75,0,0,1,78,69.46h0a.62.62,0,0,1-.87-.14L67.82,56.55a1.06,1.06,0,0,0-1.26-.4,1,1,0,0,0-.46,1.59L75.37,70.5a.68.68,0,0,1-.15,1h0a.68.68,0,0,1-1-.15L65,58.59a1.08,1.08,0,0,0-1.26-.4,1.06,1.06,0,0,0-.46,1.6l9.27,12.75a.69.69,0,0,1-.15,1h0a.69.69,0,0,1-1-.16L62.2,60.64a1.07,1.07,0,0,0-1.26-.4,1,1,0,0,0-.47,1.59l9.69,13.32.07.1,1.17,1.6a6.27,6.27,0,0,0,8.75,1.39h0A6.28,6.28,0,0,0,81.53,69.49Z"></path></g></g></g></svg> 